{
  "accessors": [
    {
      "bufferView": 2,
      "componentType": 5126,
      "count": 65532,
      "max": [
        4.8403358459472656,
        9.3700885772705078,
        4.5280094146728516
      ],
      "min": [
        -6.5814008712768555,
        -24.787147521972656,
        -6.8468012809753418
      ],
      "type": "VEC3"
    },
    {
      "bufferView": 2,
      "byteOffset": 786384,
      "componentType": 5126,
      "count": 65532,
      "max": [
        1,
        1,
        1
      ],
      "min": [
        -1,
        -1,
        -1
      ],
      "type": "VEC3"
    },
    {
      "bufferView": 3,
      "componentType": 5126,
      "count": 65532,
      "max": [
        1,
        1,
        1,
        1
      ],
      "min": [
        -1,
        -1,
        -1,
        -1
      ],
      "type": "VEC4"
    },
    {
      "bufferView": 1,
      "componentType": 5126,
      "count": 65532,
      "max": [
        1,
        0.76148808002471924
      ],
      "min": [
        -0.00026225441251881421,
        0
      ],
      "type": "VEC2"
    },
    {
      "bufferView": 1,
      "byteOffset": 524256,
      "componentType": 5126,
      "count": 65532,
      "max": [
        1,
        0.76148808002471924
      ],
      "min": [
        -0.00026225441251881421,
        0
      ],
      "type": "VEC2"
    },
    {
      "bufferView": 1,
      "byteOffset": 1048512,
      "componentType": 5126,
      "count": 65532,
      "max": [
        1,
        0.76148808002471924
      ],
      "min": [
        -0.00026225441251881421,
        0
      ],
      "type": "VEC2"
    },
    {
      "bufferView": 0,
      "componentType": 5125,
      "count": 115773,
      "max": [
        65531
      ],
      "min": [
        0
      ],
      "type": "SCALAR"
    },
    {
      "bufferView": 2,
      "byteOffset": 1572768,
      "componentType": 5126,
      "count": 1640,
      "max": [
        4.6132059097290039,
        9.3700847625732422,
        4.2101407051086426
      ],
      "min": [
        -6.0526556968688965,
        -24.604803085327148,
        -6.8468012809753418
      ],
      "type": "VEC3"
    },
    {
      "bufferView": 2,
      "byteOffset": 1592448,
      "componentType": 5126,
      "count": 1640,
      "max": [
        1,
        1,
        1
      ],
      "min": [
        -1,
        -1,
        -1
      ],
      "type": "VEC3"
    },
    {
      "bufferView": 3,
      "byteOffset": 1048512,
      "componentType": 5126,
      "count": 1640,
      "max": [
        1,
        1,
        1,
        1
      ],
      "min": [
        -1,
        -1,
        -1,
        -1
      ],
      "type": "VEC4"
    },
    {
      "bufferView": 1,
      "byteOffset": 1572768,
      "componentType": 5126,
      "count": 1640,
      "max": [
        0.99094271659851074,
        0.74020832777023315
      ],
      "min": [
        0.0096674663946032524,
        0
      ],
      "type": "VEC2"
    },
    {
      "bufferView": 1,
      "byteOffset": 1585888,
      "componentType": 5126,
      "count": 1640,
      "max": [
        0.99094271659851074,
        0.74020832777023315
      ],
      "min": [
        0.0096674663946032524,
        0
      ],
      "type": "VEC2"
    },
    {
      "bufferView": 1,
      "byteOffset": 1599008,
      "componentType": 5126,
      "count": 1640,
      "max": [
        0.99094271659851074,
        0.74020832777023315
      ],
      "min": [
        0.0096674663946032524,
        0
      ],
      "type": "VEC2"
    },
    {
      "bufferView": 0,
      "byteOffset": 463092,
      "componentType": 5125,
      "count": 2460,
      "max": [
        1639
      ],
      "min": [
        0
      ],
      "type": "SCALAR"
    },
    {
      "bufferView": 2,
      "byteOffset": 1612128,
      "componentType": 5126,
      "count": 34900,
      "max": [
        4.8403358459472656,
        9.3700885772705078,
        8.0908088684082031
      ],
      "min": [
        -6.5814156532287598,
        -24.787147521972656,
        4.5280084609985352
      ],
      "type": "VEC3"
    },
    {
      "bufferView": 2,
      "byteOffset": 2030928,
      "componentType": 5126,
      "count": 34900,
      "max": [
        1,
        1,
        1
      ],
      "min": [
        -1,
        -1,
        -1
      ],
      "type": "VEC3"
    },
    {
      "bufferView": 3,
      "byteOffset": 1074752,
      "componentType": 5126,
      "count": 34900,
      "max": [
        1,
        1,
        1,
        1
      ],
      "min": [
        -1,
        -1,
        -1,
        -1
      ],
      "type": "VEC4"
    },
    {
      "bufferView": 1,
      "byteOffset": 1612128,
      "componentType": 5126,
      "count": 34900,
      "max": [
        1,
        1
      ],
      "min": [
        -0.00026225348119623959,
        0
      ],
      "type": "VEC2"
    },
    {
      "bufferView": 1,
      "byteOffset": 1891328,
      "componentType": 5126,
      "count": 34900,
      "max": [
        1,
        1
      ],
      "min": [
        -0.00026225348119623959,
        0
      ],
      "type": "VEC2"
    },
    {
      "bufferView": 1,
      "byteOffset": 2170528,
      "componentType": 5126,
      "count": 34900,
      "max": [
        1,
        1
      ],
      "min": [
        -0.00026225348119623959,
        0
      ],
      "type": "VEC2"
    },
    {
      "bufferView": 0,
      "byteOffset": 472932,
      "componentType": 5125,
      "count": 65244,
      "max": [
        34899
      ],
      "min": [
        0
      ],
      "type": "SCALAR"
    },
    {
      "bufferView": 2,
      "byteOffset": 2449728,
      "componentType": 5126,
      "count": 7698,
      "max": [
        4.4584918022155762,
        9.0571088790893555,
        6.3797073364257812
      ],
      "min": [
        -6.3001494407653809,
        -24.440113067626953,
        -3.9274537563323975
      ],
      "type": "VEC3"
    },
    {
      "bufferView": 2,
      "byteOffset": 2542104,
      "componentType": 5126,
      "count": 7698,
      "max": [
        1,
        1,
        1
      ],
      "min": [
        -1,
        -1,
        -1
      ],
      "type": "VEC3"
    },
    {
      "bufferView": 3,
      "byteOffset": 1633152,
      "componentType": 5126,
      "count": 7698,
      "max": [
        1,
        1,
        1,
        1
      ],
      "min": [
        -1,
        -1,
        -1,
        -1
      ],
      "type": "VEC4"
    },
    {
      "bufferView": 1,
      "byteOffset": 2449728,
      "componentType": 5126,
      "count": 7698,
      "max": [
        0.96883165836334229,
        0.88545042276382446
      ],
      "min": [
        0.011603506281971931,
        0.19543604552745819
      ],
      "type": "VEC2"
    },
    {
      "bufferView": 0,
      "byteOffset": 733908,
      "componentType": 5125,
      "count": 11604,
      "max": [
        7697
      ],
      "min": [
        0
      ],
      "type": "SCALAR"
    },
    {
      "bufferView": 2,
      "byteOffset": 2634480,
      "componentType": 5126,
      "count": 2228,
      "max": [
        4.9080233573913574,
        9.5278873443603516,
        8.3273277282714844
      ],
      "min": [
        -6.7027859687805176,
        -24.979177474975586,
        -6.8366036415100098
      ],
      "type": "VEC3"
    },
    {
      "bufferView": 2,
      "byteOffset": 2661216,
      "componentType": 5126,
      "count": 2228,
      "max": [
        1,
        1,
        1
      ],
      "min": [
        -1,
        -1,
        -1
      ],
      "type": "VEC3"
    },
    {
      "bufferView": 1,
      "byteOffset": 2511312,
      "componentType": 5126,
      "count": 2228,
      "max": [
        1.9425086975097656,
        1.9425088167190552
      ],
      "min": [
        -0.94250881671905518,
        -0.9425087571144104
      ],
      "type": "VEC2"
    },
    {
      "bufferView": 0,
      "byteOffset": 780324,
      "componentType": 5125,
      "count": 6300,
      "max": [
        2227
      ],
      "min": [
        0
      ],
      "type": "SCALAR"
    }
  ],
  "asset": {
    "extras": {
      "author": "Hrvoje Wächter (https://sketchfab.com/gazdahrco)",
      "license": "CC-BY-4.0 (http://creativecommons.org/licenses/by/4.0/)",
      "source": "https://sketchfab.com/3d-models/old-industrial-building-0dafa7aaadfd4666bb4a32776c84b14e",
      "title": "Old Industrial Building"
    },
    "generator": "Sketchfab-10.26.0",
    "version": "2.0"
  },
  "bufferViews": [
    {
      "buffer": 0,
      "byteLength": 805524,
      "byteOffset": 0,
      "name": "floatBufferViews",
      "target": 34963
    },
    {
      "buffer": 0,
      "byteLength": 2529136,
      "byteOffset": 805524,
      "byteStride": 8,
      "name": "floatBufferViews",
      "target": 34962
    },
    {
      "buffer": 0,
      "byteLength": 2687952,
      "byteOffset": 3334660,
      "byteStride": 12,
      "name": "floatBufferViews",
      "target": 34962
    },
    {
      "buffer": 0,
      "byteLength": 1756320,
      "byteOffset": 6022612,
      "byteStride": 16,
      "name": "floatBufferViews",
      "target": 34962
    }
  ],
  "buffers": [
    {
      "byteLength": 7778932,
      "uri": "scene.bin"
    }
  ],
  "images": [
    {
      "uri": "textures/building_baseColor.jpeg"
    },
    {
      "uri": "textures/building_metallicRoughness.png"
    },
    {
      "uri": "textures/building_normal.png"
    },
    {
      "uri": "textures/building_windows_metallicRoughness.png"
    },
    {
      "uri": "textures/building_floor_baseColor.jpeg"
    }
  ],
  "materials": [
    {
      "doubleSided": true,
      "emissiveFactor": [
        0,
        0,
        0
      ],
      "name": "building",
      "normalTexture": {
        "index": 2,
        "scale": 1,
        "texCoord": 0
      },
      "occlusionTexture": {
        "index": 1,
        "strength": 1,
        "texCoord": 0
      },
      "pbrMetallicRoughness": {
        "baseColorFactor": [
          1,
          1,
          1,
          1
        ],
        "baseColorTexture": {
          "index": 0,
          "texCoord": 0
        },
        "metallicFactor": 0,
        "metallicRoughnessTexture": {
          "index": 1,
          "texCoord": 0
        },
        "roughnessFactor": 1
      }
    },
    {
      "doubleSided": true,
      "emissiveFactor": [
        0,
        0,
        0
      ],
      "name": "building_windows",
      "normalTexture": {
        "index": 2,
        "scale": 0.083429159286392537,
        "texCoord": 0
      },
      "occlusionTexture": {
        "index": 3,
        "strength": 1,
        "texCoord": 0
      },
      "pbrMetallicRoughness": {
        "baseColorFactor": [
          1,
          1,
          1,
          1
        ],
        "baseColorTexture": {
          "index": 0,
          "texCoord": 0
        },
        "metallicFactor": 1,
        "metallicRoughnessTexture": {
          "index": 3,
          "texCoord": 0
        },
        "roughnessFactor": 1
      }
    },
    {
      "doubleSided": true,
      "emissiveFactor": [
        0,
        0,
        0
      ],
      "name": "building_floor",
      "pbrMetallicRoughness": {
        "baseColorFactor": [
          1,
          1,
          1,
          1
        ],
        "baseColorTexture": {
          "index": 4,
          "texCoord": 0
        },
        "metallicFactor": 0,
        "roughnessFactor": 0.82111456180001685
      }
    }
  ],
  "meshes": [
    {
      "name": "building _building _0",
      "primitives": [
        {
          "attributes": {
            "NORMAL": 1,
            "POSITION": 0,
            "TANGENT": 2,
            "TEXCOORD_0": 3,
            "TEXCOORD_1": 4,
            "TEXCOORD_2": 5
          },
          "indices": 6,
          "material": 0,
          "mode": 4
        }
      ]
    },
    {
      "name": "building _building _0",
      "primitives": [
        {
          "attributes": {
            "NORMAL": 8,
            "POSITION": 7,
            "TANGENT": 9,
            "TEXCOORD_0": 10,
            "TEXCOORD_1": 11,
            "TEXCOORD_2": 12
          },
          "indices": 13,
          "material": 0,
          "mode": 4
        }
      ]
    },
    {
      "name": "building top_building _0",
      "primitives": [
        {
          "attributes": {
            "NORMAL": 15,
            "POSITION": 14,
            "TANGENT": 16,
            "TEXCOORD_0": 17,
            "TEXCOORD_1": 18,
            "TEXCOORD_2": 19
          },
          "indices": 20,
          "material": 0,
          "mode": 4
        }
      ]
    },
    {
      "name": "building windows_building windows_0",
      "primitives": [
        {
          "attributes": {
            "NORMAL": 22,
            "POSITION": 21,
            "TANGENT": 23,
            "TEXCOORD_0": 24
          },
          "indices": 25,
          "material": 1,
          "mode": 4
        }
      ]
    },
    {
      "name": "building floor_building floor_0",
      "primitives": [
        {
          "attributes": {
            "NORMAL": 27,
            "POSITION": 26,
            "TEXCOORD_0": 28
          },
          "indices": 29,
          "material": 2,
          "mode": 4
        }
      ]
    }
  ],
  "nodes": [
    {
      "children": [
        1
      ],
      "name": "RootNode (gltf orientation matrix)",
      "rotation": [
        -0.70710678118654746,
        -0,
        -0,
        0.70710678118654757
      ]
    },
    {
      "children": [
        2
      ],
      "name": "RootNode (model correction matrix)"
    },
    {
      "children": [
        3
      ],
      "matrix": [
        1,
        0,
        0,
        0,
        0,
        0,
        1,
        0,
        0,
        -1,
        0,
        0,
        0,
        0,
        0,
        1
      ],
      "name": "4cfd79d3259444ceb3cc013c7b29652a.fbx"
    },
    {
      "children": [
        4,
        7,
        9,
        11
      ],
      "name": "RootNode"
    },
    {
      "children": [
        5,
        6
      ],
      "matrix": [
        100,
        0,
        0,
        0,
        0,
        -1.6292067939183141e-05,
        -99.999999999998678,
        0,
        0,
        99.999999999998678,
        -1.6292067939183141e-05,
        0,
        0,
        0,
        0,
        1
      ],
      "name": "building "
    },
    {
      "mesh": 0,
      "name": "building _building _0"
    },
    {
      "mesh": 1,
      "name": "building _building _0"
    },
    {
      "children": [
        8
      ],
      "matrix": [
        100,
        0,
        0,
        0,
        0,
        -1.6292067939183141e-05,
        -99.999999999998678,
        0,
        0,
        99.999999999998678,
        -1.6292067939183141e-05,
        0,
        0,
        0,
        0,
        1
      ],
      "name": "building top"
    },
    {
      "mesh": 2,
      "name": "building top_building _0"
    },
    {
      "children": [
        10
      ],
      "matrix": [
        100,
        0,
        0,
        0,
        0,
        -1.6292067939183141e-05,
        -99.999999999998678,
        0,
        0,
        99.999999999998678,
        -1.6292067939183141e-05,
        0,
        0,
        0,
        0,
        1
      ],
      "name": "building windows"
    },
    {
      "mesh": 3,
      "name": "building windows_building windows_0"
    },
    {
      "children": [
        12
      ],
      "matrix": [
        100,
        0,
        0,
        0,
        0,
        -1.6292067939183141e-05,
        -99.999999999998678,
        0,
        0,
        99.999999999998678,
        -1.6292067939183141e-05,
        0,
        0,
        0,
        0,
        1
      ],
      "name": "building floor"
    },
    {
      "mesh": 4,
      "name": "building floor_building floor_0"
    }
  ],
  "samplers": [
    {
      "magFilter": 9729,
      "minFilter": 9987,
      "wrapS": 10497,
      "wrapT": 10497
    }
  ],
  "scene": 0,
  "scenes": [
    {
      "name": "OSG_Scene",
      "nodes": [
        0
      ]
    }
  ],
  "textures": [
    {
      "sampler": 0,
      "source": 0
    },
    {
      "sampler": 0,
      "source": 1
    },
    {
      "sampler": 0,
      "source": 2
    },
    {
      "sampler": 0,
      "source": 3
    },
    {
      "sampler": 0,
      "source": 4
    }
  ]
}

