{
  "accessors": [
    {
      "bufferView": 2,
      "componentType": 5126,
      "count": 1804,
      "max": [
        62.400810241699219,
        146.99867248535156,
        89.094749450683594
      ],
      "min": [
        -61.353279113769531,
        -147.73626708984375,
        3.5982460975646973
      ],
      "type": "VEC3"
    },
    {
      "bufferView": 2,
      "byteOffset": 21648,
      "componentType": 5126,
      "count": 1804,
      "max": [
        1,
        0.99990296363830566,
        1
      ],
      "min": [
        -1,
        -0.99942010641098022,
        -1
      ],
      "type": "VEC3"
    },
    {
      "bufferView": 3,
      "componentType": 5126,
      "count": 1804,
      "max": [
        0.99997693300247192,
        0.99993902444839478,
        0.99898475408554077,
        1
      ],
      "min": [
        -1,
        -0.99879550933837891,
        -0.99992436170578003,
        1
      ],
      "type": "VEC4"
    },
    {
      "bufferView": 1,
      "componentType": 5126,
      "count": 1804,
      "max": [
        0.99934428930282593,
        0.99946379661560059
      ],
      "min": [
        0.00099999993108212948,
        0.00099999865051358938
      ],
      "type": "VEC2"
    },
    {
      "bufferView": 0,
      "componentType": 5125,
      "count": 5871,
      "max": [
        1803
      ],
      "min": [
        0
      ],
      "type": "SCALAR"
    },
    {
      "bufferView": 2,
      "byteOffset": 43296,
      "componentType": 5126,
      "count": 1429,
      "max": [
        35.305873870849609,
        83.066879272460938,
        47.084789276123047
      ],
      "min": [
        -36.404895782470703,
        -85.513381958007812,
        -0.045092731714248657
      ],
      "type": "VEC3"
    },
    {
      "bufferView": 2,
      "byteOffset": 60444,
      "componentType": 5126,
      "count": 1429,
      "max": [
        1,
        0.99999862909317017,
        1
      ],
      "min": [
        -1,
        -0.99921506643295288,
        -0.99995583295822144
      ],
      "type": "VEC3"
    },
    {
      "bufferView": 3,
      "byteOffset": 28864,
      "componentType": 5126,
      "count": 1429,
      "max": [
        0.99991875886917114,
        0.99999755620956421,
        0.99898242950439453,
        1
      ],
      "min": [
        -0.99999958276748657,
        -0.99999213218688965,
        -0.99965482950210571,
        -1
      ],
      "type": "VEC4"
    },
    {
      "bufferView": 1,
      "byteOffset": 14432,
      "componentType": 5126,
      "count": 1429,
      "max": [
        0.99990284442901611,
        0.99987554550170898
      ],
      "min": [
        0.0010000001639127731,
        0.0010000000474974513
      ],
      "type": "VEC2"
    },
    {
      "bufferView": 0,
      "byteOffset": 23484,
      "componentType": 5125,
      "count": 4482,
      "max": [
        1428
      ],
      "min": [
        0
      ],
      "type": "SCALAR"
    }
  ],
  "asset": {
    "extras": {
      "author": "Renafox (https://sketchfab.com/kryik1023)",
      "license": "CC-BY-4.0 (http://creativecommons.org/licenses/by/4.0/)",
      "source": "https://sketchfab.com/3d-models/burned-out-cars-701066df6b914fd08318524c7ccd96a7",
      "title": "Burned-out Cars"
    },
    "generator": "Sketchfab-6.86.0",
    "version": "2.0"
  },
  "bufferViews": [
    {
      "buffer": 0,
      "byteLength": 41412,
      "byteOffset": 0,
      "name": "floatBufferViews",
      "target": 34963
    },
    {
      "buffer": 0,
      "byteLength": 25864,
      "byteOffset": 41412,
      "byteStride": 8,
      "name": "floatBufferViews",
      "target": 34962
    },
    {
      "buffer": 0,
      "byteLength": 77592,
      "byteOffset": 67276,
      "byteStride": 12,
      "name": "floatBufferViews",
      "target": 34962
    },
    {
      "buffer": 0,
      "byteLength": 51728,
      "byteOffset": 144868,
      "byteStride": 16,
      "name": "floatBufferViews",
      "target": 34962
    }
  ],
  "buffers": [
    {
      "byteLength": 196596,
      "uri": "scene.bin"
    }
  ],
  "images": [
    {
      "uri": "textures/Material_25_baseColor.png"
    },
    {
      "uri": "textures/Material_25_metallicRoughness.png"
    },
    {
      "uri": "textures/Material_25_normal.png"
    },
    {
      "uri": "textures/Material_26_baseColor.png"
    },
    {
      "uri": "textures/Material_26_metallicRoughness.png"
    },
    {
      "uri": "textures/Material_26_normal.png"
    }
  ],
  "materials": [
    {
      "doubleSided": true,
      "name": "Material_25",
      "normalTexture": {
        "index": 2,
        "scale": 1,
        "texCoord": 0
      },
      "occlusionTexture": {
        "index": 1,
        "strength": 1,
        "texCoord": 0
      },
      "pbrMetallicRoughness": {
        "baseColorFactor": [
          1,
          1,
          1,
          1
        ],
        "baseColorTexture": {
          "index": 0,
          "texCoord": 0
        },
        "metallicFactor": 1,
        "metallicRoughnessTexture": {
          "index": 1,
          "texCoord": 0
        },
        "roughnessFactor": 1
      }
    },
    {
      "doubleSided": true,
      "name": "Material_26",
      "normalTexture": {
        "index": 5,
        "scale": 1,
        "texCoord": 0
      },
      "occlusionTexture": {
        "index": 4,
        "strength": 1,
        "texCoord": 0
      },
      "pbrMetallicRoughness": {
        "baseColorFactor": [
          1,
          1,
          1,
          1
        ],
        "baseColorTexture": {
          "index": 3,
          "texCoord": 0
        },
        "metallicFactor": 1,
        "metallicRoughnessTexture": {
          "index": 4,
          "texCoord": 0
        },
        "roughnessFactor": 1
      }
    }
  ],
  "meshes": [
    {
      "name": "default001_Material #25_0",
      "primitives": [
        {
          "attributes": {
            "NORMAL": 1,
            "POSITION": 0,
            "TANGENT": 2,
            "TEXCOORD_0": 3
          },
          "indices": 4,
          "material": 0,
          "mode": 4
        }
      ]
    },
    {
      "name": "default002_Material #26_0",
      "primitives": [
        {
          "attributes": {
            "NORMAL": 6,
            "POSITION": 5,
            "TANGENT": 7,
            "TEXCOORD_0": 8
          },
          "indices": 9,
          "material": 1,
          "mode": 4
        }
      ]
    }
  ],
  "nodes": [
    {
      "children": [
        1
      ],
      "name": "RootNode (gltf orientation matrix)",
      "rotation": [
        -0.70710678118654746,
        -0,
        -0,
        0.70710678118654757
      ]
    },
    {
      "children": [
        2
      ],
      "name": "RootNode (model correction matrix)"
    },
    {
      "children": [
        3
      ],
      "matrix": [
        1,
        0,
        0,
        0,
        0,
        0,
        1,
        0,
        0,
        -1,
        0,
        0,
        0,
        0,
        0,
        1
      ],
      "name": "burnedcars.FBX"
    },
    {
      "children": [
        4,
        6
      ],
      "name": "RootNode"
    },
    {
      "children": [
        5
      ],
      "matrix": [
        1,
        0,
        0,
        0,
        0,
        2.2204460492503131e-16,
        -1,
        0,
        0,
        1,
        2.2204460492503131e-16,
        0,
        78.211563110351562,
        -2.1300816535949707,
        -9.3108823762122483e-08,
        1
      ],
      "name": "default001"
    },
    {
      "mesh": 0,
      "name": "default001_Material #25_0"
    },
    {
      "children": [
        7
      ],
      "matrix": [
        1.7227832078933716,
        0,
        0,
        0,
        0,
        3.8253471676816177e-16,
        -1.7227832078933716,
        0,
        0,
        1.7227832078933716,
        3.8253471676816177e-16,
        0,
        -78.899703979492188,
        0.4205167293548584,
        1.8381371091891197e-08,
        1
      ],
      "name": "default002"
    },
    {
      "mesh": 1,
      "name": "default002_Material #26_0"
    }
  ],
  "samplers": [
    {
      "magFilter": 9729,
      "minFilter": 9987,
      "wrapS": 10497,
      "wrapT": 10497
    }
  ],
  "scene": 0,
  "scenes": [
    {
      "name": "OSG_Scene",
      "nodes": [
        0
      ]
    }
  ],
  "textures": [
    {
      "sampler": 0,
      "source": 0
    },
    {
      "sampler": 0,
      "source": 1
    },
    {
      "sampler": 0,
      "source": 2
    },
    {
      "sampler": 0,
      "source": 3
    },
    {
      "sampler": 0,
      "source": 4
    },
    {
      "sampler": 0,
      "source": 5
    }
  ]
}

