<svg xmlns:xlink="http://www.w3.org/1999/xlink" viewBox="0 0 30 30" fill="none" height="30" width="30" xmlns="http://www.w3.org/2000/svg" alt="point">
    <path xmlns="http://www.w3.org/2000/svg" fill="#39B54A" fill-rule="evenodd" d="M15 0c8.284 0 15 6.716 15 15 0 8.284-6.716 15-15 15-8.284 0-15-6.716-15-15C0 6.716 6.716 0 15 0z" clip-rule="evenodd"></path>
    <path xmlns="http://www.w3.org/2000/svg" fill="#FFFFFF" fill-rule="evenodd" d="M11.961 21.499c-.837-.024-1.615-.444-2.071-1.109l-3.33-4.61c-.386-.533-.267-1.278.265-1.664.533-.386 1.276-.266 1.662.267l3.347 4.633c.04.059.113.098.197.1.084.003.16-.033.205-.09l.113-.125 9.303-8.984c.473-.457 1.226-.443 1.681.031.457.474.443 1.228-.03 1.685l-9.252 8.934c-.514.612-1.285.955-2.09.932z" clip-rule="evenodd"></path>
</svg>