{
  "accessors": [
    {
      "bufferView": 2,
      "componentType": 5126,
      "count": 2526,
      "max": [
        1.1945304870605469,
        1.4664876461029053,
        1.2699390649795532
      ],
      "min": [
        -1.102228045463562,
        -1.1030769348144531,
        -1.0518416166305542
      ],
      "type": "VEC3"
    },
    {
      "bufferView": 2,
      "byteOffset": 30312,
      "componentType": 5126,
      "count": 2526,
      "max": [
        1.0,
        1.0,
        1.0
      ],
      "min": [
        -1.0,
        -1.0,
        -1.0
      ],
      "type": "VEC3"
    },
    {
      "bufferView": 1,
      "componentType": 5126,
      "count": 2526,
      "max": [
        0.9999474883079529,
        0.998772144317627
      ],
      "min": [
        0.0006826834287494421,
        0.0010610447498038411
      ],
      "type": "VEC2"
    },
    {
      "bufferView": 0,
      "componentType": 5125,
      "count": 4101,
      "type": "SCALAR"
    },
    {
      "bufferView": 2,
      "byteOffset": 60624,
      "componentType": 5126,
      "count": 168,
      "max": [
        0.09764815866947174,
        7.0409440994262695,
        6.810205936431885
      ],
      "min": [
        -12.094581604003906,
        -3.981706380844116,
        -1.0
      ],
      "type": "VEC3"
    },
    {
      "bufferView": 2,
      "byteOffset": 62640,
      "componentType": 5126,
      "count": 168,
      "max": [
        0.929754376411438,
        0.9472843408584595,
        0.9988718628883362
      ],
      "min": [
        -0.9348067045211792,
        -0.9579002857208252,
        -0.9459372162818909
      ],
      "type": "VEC3"
    },
    {
      "bufferView": 1,
      "byteOffset": 20208,
      "componentType": 5126,
      "count": 168,
      "max": [
        0.9998754262924194,
        0.9956656098365784
      ],
      "min": [
        0.00556119903922081,
        0.006074890028685331
      ],
      "type": "VEC2"
    },
    {
      "bufferView": 1,
      "byteOffset": 21552,
      "componentType": 5126,
      "count": 168,
      "max": [
        0.9998754262924194,
        0.9956656098365784
      ],
      "min": [
        0.00556119903922081,
        0.006074890028685331
      ],
      "type": "VEC2"
    },
    {
      "bufferView": 0,
      "byteOffset": 16404,
      "componentType": 5125,
      "count": 396,
      "type": "SCALAR"
    }
  ],
  "asset": {
    "extras": {
      "author": "Nelofar (https://sketchfab.com/sarvarxba404)",
      "license": "CC-BY-4.0 (http://creativecommons.org/licenses/by/4.0/)",
      "source": "https://sketchfab.com/3d-models/hause-wooden-red-42954cd771fd4c309906cbc9422c206f",
      "title": "Hause | Wooden | Red"
    },
    "generator": "Sketchfab-10.41.0",
    "version": "2.0"
  },
  "bufferViews": [
    {
      "buffer": 0,
      "byteLength": 17988,
      "name": "floatBufferViews",
      "target": 34963
    },
    {
      "buffer": 0,
      "byteLength": 22896,
      "byteOffset": 17988,
      "byteStride": 8,
      "name": "floatBufferViews",
      "target": 34962
    },
    {
      "buffer": 0,
      "byteLength": 64656,
      "byteOffset": 40884,
      "byteStride": 12,
      "name": "floatBufferViews",
      "target": 34962
    }
  ],
  "buffers": [
    {
      "byteLength": 105540,
      "uri": "scene.bin"
    }
  ],
  "images": [
    {
      "uri": "textures/Material_baseColor.png"
    },
    {
      "uri": "textures/Material.001_baseColor.png"
    }
  ],
  "materials": [
    {
      "doubleSided": true,
      "name": "Material",
      "pbrMetallicRoughness": {
        "baseColorTexture": {
          "index": 0
        },
        "metallicFactor": 0.0,
        "roughnessFactor": 0.0
      }
    },
    {
      "doubleSided": true,
      "name": "Material.001",
      "pbrMetallicRoughness": {
        "baseColorTexture": {
          "index": 1
        },
        "metallicFactor": 0.0
      }
    }
  ],
  "meshes": [
    {
      "name": "Cube_Material_0",
      "primitives": [
        {
          "attributes": {
            "NORMAL": 1,
            "POSITION": 0,
            "TEXCOORD_0": 2
          },
          "indices": 3,
          "material": 0,
          "mode": 4
        }
      ]
    },
    {
      "name": "Cube.005_Material.001_0",
      "primitives": [
        {
          "attributes": {
            "NORMAL": 5,
            "POSITION": 4,
            "TEXCOORD_0": 6,
            "TEXCOORD_1": 7
          },
          "indices": 8,
          "material": 1,
          "mode": 4
        }
      ]
    }
  ],
  "nodes": [
    {
      "children": [
        1
      ],
      "matrix": [
        0.03387681022286415,
        0.0,
        0.0,
        0.0,
        0.0,
        7.522162942056132e-18,
        -0.03387681022286415,
        0.0,
        0.0,
        0.03387681022286415,
        7.522162942056132e-18,
        0.0,
        0.0,
        3.499107492643929e-08,
        -5.08408129462623e-06,
        1.0
      ],
      "name": "Sketchfab_model"
    },
    {
      "children": [
        2
      ],
      "matrix": [
        1.0,
        0.0,
        0.0,
        0.0,
        0.0,
        0.0,
        1.0,
        0.0,
        0.0,
        -1.0,
        0.0,
        0.0,
        0.0,
        0.0,
        0.0,
        1.0
      ],
      "name": "House.fbx"
    },
    {
      "children": [
        3,
        5
      ],
      "name": "RootNode"
    },
    {
      "children": [
        4
      ],
      "matrix": [
        100.0,
        0.0,
        0.0,
        0.0,
        0.0,
        -1.629206793918314e-05,
        -99.99999999999868,
        0.0,
        0.0,
        99.99999999999868,
        -1.629206793918314e-05,
        0.0,
        0.0,
        101.0309066772461,
        0.0,
        1.0
      ],
      "name": "Cube"
    },
    {
      "mesh": 0,
      "name": "Cube_Material_0"
    },
    {
      "children": [
        6
      ],
      "matrix": [
        18.24527359008789,
        0.0,
        0.0,
        0.0,
        0.0,
        -2.972532368986958e-06,
        -18.24527359008765,
        0.0,
        0.0,
        18.24527359008765,
        -2.972532368986958e-06,
        0.0,
        109.2795639038086,
        13.155823707580566,
        42.96500015258789,
        1.0
      ],
      "name": "Cube.005"
    },
    {
      "mesh": 1,
      "name": "Cube.005_Material.001_0"
    }
  ],
  "samplers": [
    {
      "magFilter": 9729,
      "minFilter": 9987,
      "wrapS": 10497,
      "wrapT": 10497
    }
  ],
  "scene": 0,
  "scenes": [
    {
      "name": "Sketchfab_Scene",
      "nodes": [
        0
      ]
    }
  ],
  "textures": [
    {
      "sampler": 0,
      "source": 0
    },
    {
      "sampler": 0,
      "source": 1
    }
  ]
}
