{
  "accessors": [
    {
      "bufferView": 2,
      "componentType": 5126,
      "count": 2546,
      "max": [
        48.026130676269531,
        270.74090576171875,
        75.457893371582031
      ],
      "min": [
        -50.874431610107422,
        -48.419807434082031,
        -50.874435424804688
      ],
      "type": "VEC3"
    },
    {
      "bufferView": 2,
      "byteOffset": 30552,
      "componentType": 5126,
      "count": 2546,
      "max": [
        1,
        1,
        1
      ],
      "min": [
        -1,
        -1,
        -1
      ],
      "type": "VEC3"
    },
    {
      "bufferView": 3,
      "componentType": 5126,
      "count": 2546,
      "max": [
        1,
        1,
        1,
        1
      ],
      "min": [
        -1,
        -1,
        -1,
        -1
      ],
      "type": "VEC4"
    },
    {
      "bufferView": 1,
      "componentType": 5126,
      "count": 2546,
      "max": [
        0.99128514528274536,
        0.99593847990036011
      ],
      "min": [
        0.01413118839263916,
        0.010581208392977715
      ],
      "type": "VEC2"
    },
    {
      "bufferView": 1,
      "byteOffset": 20368,
      "componentType": 5126,
      "count": 2546,
      "max": [
        0.99128514528274536,
        0.99593847990036011
      ],
      "min": [
        0.01413118839263916,
        0.010581208392977715
      ],
      "type": "VEC2"
    },
    {
      "bufferView": 1,
      "byteOffset": 40736,
      "componentType": 5126,
      "count": 2546,
      "max": [
        0.99128514528274536,
        0.99593847990036011
      ],
      "min": [
        0.01413118839263916,
        0.010581208392977715
      ],
      "type": "VEC2"
    },
    {
      "bufferView": 1,
      "byteOffset": 61104,
      "componentType": 5126,
      "count": 2546,
      "max": [
        0.99128514528274536,
        0.99593847990036011
      ],
      "min": [
        0.01413118839263916,
        0.010581208392977715
      ],
      "type": "VEC2"
    },
    {
      "bufferView": 0,
      "componentType": 5125,
      "count": 8346,
      "max": [
        2545
      ],
      "min": [
        0
      ],
      "type": "SCALAR"
    },
    {
      "bufferView": 2,
      "byteOffset": 61104,
      "componentType": 5126,
      "count": 32,
      "max": [
        5.4955863952636719,
        230.34593200683594,
        60.774555206298828
      ],
      "min": [
        4.1929283142089844,
        225.06178283691406,
        59.471893310546875
      ],
      "type": "VEC3"
    },
    {
      "bufferView": 2,
      "byteOffset": 61488,
      "componentType": 5126,
      "count": 32,
      "max": [
        0.99958938360214233,
        0.15476569533348083,
        0.99958938360214233
      ],
      "min": [
        -0.99958938360214233,
        -0.49770227074623108,
        -0.99958938360214233
      ],
      "type": "VEC3"
    },
    {
      "bufferView": 1,
      "byteOffset": 81472,
      "componentType": 5126,
      "count": 32,
      "max": [
        0.62161684036254883,
        0.90716564655303955
      ],
      "min": [
        0.44755899906158447,
        0.030946679413318634
      ],
      "type": "VEC2"
    },
    {
      "bufferView": 1,
      "byteOffset": 81728,
      "componentType": 5126,
      "count": 32,
      "max": [
        0.62161684036254883,
        0.90716564655303955
      ],
      "min": [
        0.44755899906158447,
        0.030946679413318634
      ],
      "type": "VEC2"
    },
    {
      "bufferView": 1,
      "byteOffset": 81984,
      "componentType": 5126,
      "count": 32,
      "max": [
        0.84714782238006592,
        0.48418262600898743
      ],
      "min": [
        0.79230725765228271,
        0.35755777359008789
      ],
      "type": "VEC2"
    },
    {
      "bufferView": 1,
      "byteOffset": 82240,
      "componentType": 5126,
      "count": 32,
      "max": [
        0.62161684036254883,
        0.90716564655303955
      ],
      "min": [
        0.44755899906158447,
        0.030946679413318634
      ],
      "type": "VEC2"
    },
    {
      "bufferView": 1,
      "byteOffset": 82496,
      "componentType": 5126,
      "count": 32,
      "max": [
        0.62161684036254883,
        0.90716564655303955
      ],
      "min": [
        0.44755899906158447,
        0.030946679413318634
      ],
      "type": "VEC2"
    },
    {
      "bufferView": 0,
      "byteOffset": 33384,
      "componentType": 5125,
      "count": 72,
      "max": [
        31
      ],
      "min": [
        0
      ],
      "type": "SCALAR"
    }
  ],
  "asset": {
    "extras": {
      "author": "Arkikon (https://sketchfab.com/ragnar)",
      "license": "CC-BY-4.0 (http://creativecommons.org/licenses/by/4.0/)",
      "source": "https://sketchfab.com/3d-models/light-pole-4d3388e65a324342b6a13b1bff16b3ed",
      "title": "Light Pole"
    },
    "generator": "Sketchfab-9.38.0",
    "version": "2.0"
  },
  "bufferViews": [
    {
      "buffer": 0,
      "byteLength": 33672,
      "byteOffset": 0,
      "name": "floatBufferViews",
      "target": 34963
    },
    {
      "buffer": 0,
      "byteLength": 82752,
      "byteOffset": 33672,
      "byteStride": 8,
      "name": "floatBufferViews",
      "target": 34962
    },
    {
      "buffer": 0,
      "byteLength": 61872,
      "byteOffset": 116424,
      "byteStride": 12,
      "name": "floatBufferViews",
      "target": 34962
    },
    {
      "buffer": 0,
      "byteLength": 40736,
      "byteOffset": 178296,
      "byteStride": 16,
      "name": "floatBufferViews",
      "target": 34962
    }
  ],
  "buffers": [
    {
      "byteLength": 219032,
      "uri": "scene.bin"
    }
  ],
  "images": [
    {
      "uri": "textures/LightPoleMAT_baseColor.jpeg"
    },
    {
      "uri": "textures/LightPoleMAT_metallicRoughness.png"
    },
    {
      "uri": "textures/LightPoleMAT_normal.png"
    },
    {
      "uri": "textures/Flame_baseColor.png"
    },
    {
      "uri": "textures/Flame_emissive.jpeg"
    }
  ],
  "materials": [
    {
      "doubleSided": true,
      "emissiveFactor": [
        0,
        0,
        0
      ],
      "name": "LightPoleMAT",
      "normalTexture": {
        "index": 2,
        "scale": 1,
        "texCoord": 0
      },
      "pbrMetallicRoughness": {
        "baseColorFactor": [
          1,
          1,
          1,
          1
        ],
        "baseColorTexture": {
          "index": 0,
          "texCoord": 0
        },
        "metallicFactor": 1,
        "metallicRoughnessTexture": {
          "index": 1,
          "texCoord": 0
        },
        "roughnessFactor": 1
      }
    },
    {
      "alphaMode": "BLEND",
      "doubleSided": true,
      "emissiveFactor": [
        1,
        1,
        1
      ],
      "emissiveTexture": {
        "index": 4,
        "texCoord": 0
      },
      "name": "Flame",
      "pbrMetallicRoughness": {
        "baseColorFactor": [
          1,
          1,
          1,
          1
        ],
        "baseColorTexture": {
          "index": 3,
          "texCoord": 0
        },
        "metallicFactor": 0,
        "roughnessFactor": 1
      }
    }
  ],
  "meshes": [
    {
      "name": "LightPole_LightPoleMAT_0",
      "primitives": [
        {
          "attributes": {
            "NORMAL": 1,
            "POSITION": 0,
            "TANGENT": 2,
            "TEXCOORD_0": 3,
            "TEXCOORD_1": 4,
            "TEXCOORD_2": 5,
            "TEXCOORD_3": 6
          },
          "indices": 7,
          "material": 0,
          "mode": 4
        }
      ]
    },
    {
      "name": "LightPole_Flame_0",
      "primitives": [
        {
          "attributes": {
            "NORMAL": 9,
            "POSITION": 8,
            "TEXCOORD_0": 10,
            "TEXCOORD_1": 11,
            "TEXCOORD_2": 12,
            "TEXCOORD_3": 13,
            "TEXCOORD_4": 14
          },
          "indices": 15,
          "material": 1,
          "mode": 4
        }
      ]
    }
  ],
  "nodes": [
    {
      "children": [
        1
      ],
      "name": "RootNode (gltf orientation matrix)",
      "rotation": [
        -0.70710678118654746,
        -0,
        -0,
        0.70710678118654757
      ]
    },
    {
      "children": [
        2
      ],
      "name": "RootNode (model correction matrix)"
    },
    {
      "children": [
        3
      ],
      "matrix": [
        1,
        0,
        0,
        0,
        0,
        0,
        1,
        0,
        0,
        -1,
        0,
        0,
        0,
        0,
        0,
        1
      ],
      "name": "LightPole_fbx.fbx"
    },
    {
      "children": [
        4
      ],
      "name": "RootNode"
    },
    {
      "children": [
        5,
        6
      ],
      "name": "LightPole"
    },
    {
      "mesh": 0,
      "name": "LightPole_LightPoleMAT_0"
    },
    {
      "mesh": 1,
      "name": "LightPole_Flame_0"
    }
  ],
  "samplers": [
    {
      "magFilter": 9729,
      "minFilter": 9987,
      "wrapS": 10497,
      "wrapT": 10497
    }
  ],
  "scene": 0,
  "scenes": [
    {
      "name": "OSG_Scene",
      "nodes": [
        0
      ]
    }
  ],
  "textures": [
    {
      "sampler": 0,
      "source": 0
    },
    {
      "sampler": 0,
      "source": 1
    },
    {
      "sampler": 0,
      "source": 2
    },
    {
      "sampler": 0,
      "source": 3
    },
    {
      "sampler": 0,
      "source": 4
    }
  ]
}

